<svg width="424" height="125" viewBox="0 0 424 125" fill="none" xmlns="http://www.w3.org/2000/svg">
<path d="M18.4021 105.586H18.4021V105.575C18.4021 105.579 18.4021 105.582 18.4021 105.586ZM18.4021 105.586H19.3289C19.3289 111.188 21.1289 116.742 30.9488 116.742C40.7686 116.742 42.933 112.473 42.933 108.205C42.933 105.479 41.8508 103.787 39.7454 102.806C37.6882 101.832 33.7828 101.264 30.7452 100.852C27.9701 100.493 23.3415 99.7216 21.3861 98.5381C19.5325 97.408 18.3003 95.3997 18.3003 92.4219C18.3003 86.8682 22.8272 82.8086 30.6916 82.8086C40.1525 82.8086 42.6758 87.3341 42.6758 95.1961H41.749C41.749 87.9982 39.3811 83.7298 30.6916 83.7298C23.4379 83.7298 19.2217 87.4305 19.2217 92.4166C19.2217 95.089 20.3039 96.7868 21.895 97.7615C23.7187 98.8733 28.1247 99.5392 30.8634 99.9532C30.9084 99.96 30.9529 99.9667 30.997 99.9734C34.0292 100.386 38.0418 100.948 40.2543 102.03C42.4669 103.112 43.8544 105.217 43.8544 108.2C43.8544 112.929 41.1276 117.658 30.9488 117.658C20.7761 117.658 18.4049 111.549 18.4021 105.586Z" fill="#061833"/>
<path d="M18.4021 105.586H18.4021V105.575C18.4021 105.579 18.4021 105.582 18.4021 105.586ZM18.4021 105.586H19.3289C19.3289 111.188 21.1289 116.742 30.9488 116.742C40.7686 116.742 42.933 112.473 42.933 108.205C42.933 105.479 41.8508 103.787 39.7454 102.806C37.6882 101.832 33.7828 101.264 30.7452 100.852C27.9701 100.493 23.3415 99.7216 21.3861 98.5381C19.5325 97.408 18.3003 95.3997 18.3003 92.4219C18.3003 86.8682 22.8272 82.8086 30.6916 82.8086C40.1525 82.8086 42.6758 87.3341 42.6758 95.1961H41.749C41.749 87.9982 39.3811 83.7298 30.6916 83.7298C23.4379 83.7298 19.2217 87.4305 19.2217 92.4166C19.2217 95.089 20.3039 96.7868 21.895 97.7615C23.7187 98.8733 28.1247 99.5392 30.8634 99.9532C30.9084 99.96 30.9529 99.9667 30.997 99.9734C34.0292 100.386 38.0418 100.948 40.2543 102.03C42.4669 103.112 43.8544 105.217 43.8544 108.2C43.8544 112.929 41.1276 117.658 30.9488 117.658C20.7761 117.658 18.4049 111.549 18.4021 105.586Z" stroke="#061833"/>
<path d="M68.9048 83.3227H89.5248V84.2492H69.8262V99.6734H86.1284V100.6H69.8262V116.228H89.9856V117.154H68.8994V83.3281L68.9048 83.3227Z" fill="#061833"/>
<path d="M68.9048 83.3227H89.5248V84.2492H69.8262V99.6734H86.1284V100.6H69.8262V116.228H89.9856V117.154H68.8994V83.3281L68.9048 83.3227Z" stroke="#061833"/>
<path d="M114.061 83.3227H127.845C135.099 83.3227 138.645 86.4611 138.645 92.7325C138.645 96.8457 136.69 100.391 132.061 100.857V100.911C136.845 101.425 138.437 104.767 138.437 109.083V117.154H137.51V109.083C137.51 104.51 135.506 101.526 129.281 101.526H114.982V117.154H114.056V83.3281L114.061 83.3227ZM128.049 100.595C135.195 100.595 137.719 97.4562 137.719 92.7272C137.719 87.0181 134.478 84.2439 127.845 84.2439H114.988V100.595H128.049Z" fill="#061833"/>
<path d="M114.061 83.3227H127.845C135.099 83.3227 138.645 86.4611 138.645 92.7325C138.645 96.8457 136.69 100.391 132.061 100.857V100.911C136.845 101.425 138.437 104.767 138.437 109.083V117.154H137.51V109.083C137.51 104.51 135.506 101.526 129.281 101.526H114.982V117.154H114.056V83.3281L114.061 83.3227ZM128.049 100.595C135.195 100.595 137.719 97.4562 137.719 92.7272C137.719 87.0181 134.478 84.2439 127.845 84.2439H114.988V100.595H128.049Z" stroke="#061833"/>
<path d="M161.066 83.3227H162.196L176.495 115.971H176.65L190.997 83.3227H192.079L177.164 117.149H175.981L161.066 83.3227Z" fill="#061833"/>
<path d="M161.066 83.3227H162.196L176.495 115.971H176.65L190.997 83.3227H192.079L177.164 117.149H175.981L161.066 83.3227Z" stroke="#061833"/>
<path d="M216.096 83.3227H217.023V117.149H216.096V83.3227Z" fill="#061833"/>
<path d="M216.096 83.3227H217.023V117.149H216.096V83.3227Z" stroke="#061833"/>
<path d="M242.426 105.586H242.426V105.575C242.426 105.579 242.426 105.582 242.426 105.586ZM242.426 105.586H243.353C243.353 111.188 245.153 116.742 254.973 116.742C264.793 116.742 266.957 112.473 266.957 108.205C266.957 105.479 265.875 103.787 263.77 102.806C261.713 101.832 257.807 101.264 254.77 100.852C251.995 100.493 247.366 99.7216 245.41 98.5381C243.557 97.408 242.325 95.3997 242.325 92.4219C242.325 86.8682 246.852 82.8086 254.716 82.8086C264.177 82.8086 266.7 87.3341 266.7 95.1961H265.773C265.773 87.9982 263.406 83.7298 254.716 83.7298C247.462 83.7298 243.246 87.4305 243.246 92.4166C243.246 95.089 244.328 96.7868 245.919 97.7615C247.743 98.8733 252.149 99.5392 254.888 99.9532L255.021 99.9734C258.054 100.386 262.066 100.948 264.279 102.03C266.491 103.112 267.879 105.217 267.879 108.2C267.879 112.929 265.152 117.658 254.973 117.658C244.8 117.658 242.429 111.549 242.426 105.586Z" fill="#061833"/>
<path d="M242.426 105.586H242.426V105.575C242.426 105.579 242.426 105.582 242.426 105.586ZM242.426 105.586H243.353C243.353 111.188 245.153 116.742 254.973 116.742C264.793 116.742 266.957 112.473 266.957 108.205C266.957 105.479 265.875 103.787 263.77 102.806C261.713 101.832 257.807 101.264 254.77 100.852C251.995 100.493 247.366 99.7216 245.41 98.5381C243.557 97.408 242.325 95.3997 242.325 92.4219C242.325 86.8682 246.852 82.8086 254.716 82.8086C264.177 82.8086 266.7 87.3341 266.7 95.1961H265.773C265.773 87.9982 263.406 83.7298 254.716 83.7298C247.462 83.7298 243.246 87.4305 243.246 92.4166C243.246 95.089 244.328 96.7868 245.919 97.7615C247.743 98.8733 252.149 99.5392 254.888 99.9532L255.021 99.9734C258.054 100.386 262.066 100.948 264.279 102.03C266.491 103.112 267.879 105.217 267.879 108.2C267.879 112.929 265.152 117.658 254.973 117.658C244.8 117.658 242.429 111.549 242.426 105.586Z" stroke="#061833"/>
<path d="M363.709 61.1612H424V5.51629C424 2.48501 421.52 0.00535583 418.487 0.00535583H363.709V61.1612Z" fill="#46AEF7"/>
<path d="M358.915 61.1612V0H304.828C301.796 0 299.315 2.47965 299.315 5.51093V61.1558H358.915V61.1612Z" fill="#46AEF7"/>
<path d="M358.915 65.9545H299.315V119.141C299.315 122.172 301.796 124.652 304.828 124.652H358.915V65.9545Z" fill="#46AEF7"/>
<path d="M363.709 65.9545V124.652H418.487C421.52 124.652 424 122.172 424 119.141V65.9545H363.709Z" fill="#46AEF7"/>
<path d="M322.501 25.782V13.1213H332.611V25.782H345.784V35.3739H332.734V48.0346H322.63V35.3739H309.451V25.782H322.501Z" fill="white"/>
<path d="M33.7668 57.798H20.6147L0 3.35809H14.77L27.3809 41.9561H27.6917L40.2276 3.35809H54.7619L33.7668 57.798Z" fill="#061833"/>
<path d="M115.063 30.3504C115.063 34.6563 114.318 38.5927 112.829 42.1542C111.34 45.7157 109.283 48.763 106.636 51.3016C103.995 53.8402 100.856 55.8003 97.2181 57.1821C93.5752 58.5692 89.6269 59.2601 85.3732 59.2601C81.1196 59.2601 77.182 58.5692 73.5658 57.1821C69.9497 55.8003 66.8264 53.8348 64.1853 51.3016C61.5442 48.763 59.4816 45.7157 57.9923 42.1542C56.503 38.5927 55.7637 34.6563 55.7637 30.3504C55.7637 26.0445 56.503 22.0599 57.9923 18.5466C59.4816 15.0387 61.5388 12.0503 64.1853 9.59204C66.8264 7.12845 69.955 5.23256 73.5658 3.89901C77.182 2.56546 81.1196 1.90137 85.3732 1.90137C89.6269 1.90137 93.5752 2.56546 97.2181 3.89901C100.856 5.23256 103.995 7.12845 106.636 9.59204C109.277 12.0503 111.34 15.0387 112.829 18.5466C114.318 22.0599 115.063 25.9963 115.063 30.3504ZM100.99 30.3504C100.99 27.9939 100.604 25.7874 99.8325 23.7416C99.061 21.6904 98.0003 19.9337 96.6395 18.4717C95.2788 17.0096 93.6395 15.8581 91.7162 15.0119C89.793 14.1657 87.6768 13.7426 85.3732 13.7426C83.0696 13.7426 80.9642 14.1657 79.0677 15.0119C77.1659 15.8581 75.5266 17.0096 74.1444 18.4717C72.7569 19.9337 71.6962 21.6904 70.9515 23.7416C70.2068 25.7928 69.8318 27.9939 69.8318 30.3504C69.8318 32.7069 70.2175 35.0794 70.989 37.1574C71.7604 39.2354 72.8212 41.0135 74.1819 42.5023C75.5427 43.9912 77.1659 45.1534 79.0677 46.0049C80.9642 46.8511 83.0696 47.2742 85.3732 47.2742C87.6768 47.2742 89.7823 46.8511 91.6787 46.0049C93.5752 45.1587 95.2199 43.9912 96.602 42.5023C97.9842 41.0188 99.061 39.2354 99.8325 37.1574C100.604 35.0794 100.99 32.8087 100.99 30.3504Z" fill="#061833"/>
<path d="M123.752 57.798V3.36345H136.98V46.3423H158.055V57.798H123.752Z" fill="#061833"/>
<path d="M164.21 57.798V3.36345H177.438V57.8033H164.21V57.798Z" fill="#061833"/>
<path d="M211.971 14.5888V57.8033H198.819V14.5888H183.438V3.36345H227.357V14.5888H211.971Z" fill="#061833"/>
<path d="M265.655 57.798L261.423 47.1082H240.348L236.346 57.798H222.042L244.885 3.35809H257.652L280.265 57.798H265.655ZM251.041 17.8932L244.119 36.579H257.812L251.041 17.8932Z" fill="#061833"/>
</svg>
