<svg width="92" height="92" viewBox="0 0 126 126" fill="none" xmlns="http://www.w3.org/2000/svg">
<path d="M66 60H126V5.40678C126 2.43279 123.532 0 120.514 0H66V60Z" fill="#46AEF7"/>
<path d="M60 60V0H5.54965C2.49707 0 0 2.43257 0 5.40631V59.9948H60V60Z" fill="#46AEF7"/>
<path d="M60 66H0V120.367C0 123.465 2.49707 126 5.54965 126H60V66Z" fill="#46AEF7"/>
<path d="M66 66V126H120.514C123.532 126 126 123.465 126 120.367V66H66Z" fill="#46AEF7"/>
<path d="M23.186 25.782V13.1213H33.2951V25.782H46.4687V35.3739H33.4184V48.0346H23.3146V35.3739H10.1357V25.782H23.186Z" fill="white"/>
</svg>
